<?xml version="1.0" encoding="utf-8"?>
<!-- Generator: Adobe Illustrator 14.0.0, SVG Export Plug-In . SVG Version: 6.00 Build 43363)  -->
<!DOCTYPE svg PUBLIC "-//W3C//DTD SVG 1.1//EN" "http://www.w3.org/Graphics/SVG/1.1/DTD/svg11.dtd">
<svg version="1.1" id="Layer_1" xmlns="http://www.w3.org/2000/svg" xmlns:xlink="http://www.w3.org/1999/xlink" x="0px" y="0px"
	 width="300px" height="300px" viewBox="0 0 300 300" enable-background="new 0 0 300 300" xml:space="preserve">
<path d="M168.855,104.192c10.44,6.612,22.533,10.03,34.641,11.993c10.837,2.034,21.908,1.106,32.855,0.96l0.086-1.26
	c-7.41-1.316-15.237-0.922-22.236-4.016c-8.462-3.12-16.445-7.368-24.201-11.935c-7.396-4.613-13.729-10.942-18.209-18.429
	c-2.814-5.235-5.331-10.67-8.793-15.525c-2.416-3.276-6.133-5.256-10.041-6.151c-3.9,1.224-9.099,2.398-10.047,7.097
	c-1.16,6.084,2.51,11.683,5.663,16.567C154.18,91.395,160.926,98.582,168.855,104.192z"/>
<path d="M109.375,182.16c5.532,21.808,10.904,43.686,18.252,64.973c0.53,1.463,1.042,3.064,2.458,3.927
	c0.5-9.699-0.53-19.371-0.919-29.054c-1.279-25.893-2.76-51.783-5.392-77.578c-0.957-10.313-1.247-21.279-6.646-30.448
	c-2.065-3.688-6.012-5.771-10.099-6.325c-2.795,1.514-5.699,3.182-7.328,6.033c-4.025,6.285-3.007,14.197-1.548,21.125
	C101.803,150.616,104.84,166.574,109.375,182.16z"/>
<path d="M133.372,131.67c7.828,4.326,16.352,7.255,24.876,9.882c-2.247,6.843-6.546,12.74-9.354,19.341
	c-3.991,7.975-7.524,16.179-11.895,23.955c-1.501,2.879-3.117,5.89-2.95,9.244c2.269-0.396,3.791-2.205,5.325-3.752
	c7.695-8.285,15.567-16.4,23.595-24.364c6.078-6.28,12.07-13.292,14.063-22.036c2.411-7.565-2.462-15.172-8.291-19.652
	c-6.683-4.764-13.532-9.498-21.227-12.48c-5.757-2.26-12.027-2.28-18.116-2.23c-2.776,2.818-5.721,6.221-5.348,10.475
	C124.077,125.609,129.205,128.979,133.372,131.67z"/>
<path d="M230.053,134.969c-8.396,0.896-16.465,4.073-23.441,8.789c-17.325,11.582-28.385,31.535-29.961,52.21
	c-0.521,10.833,0.953,22.092,6.639,31.526c5.787,10.883,16.563,18.967,28.73,21.156c2.479,0.405,4.979,0.604,7.484,0.604
	c8.501,0,17.004-2.277,24.428-6.423c25.202-14.051,39.611-45.725,32.377-73.837c-3.074-13.202-12-25.104-24.467-30.715
	c-5.535-2.025-11.41-3.634-17.33-3.634C233.027,134.646,231.538,134.747,230.053,134.969z M249.57,143.841
	c10.168,4.659,18.164,14.798,20.894,26.518l0.017,0.066l0.019,0.066c3.142,12.21,1.828,25.8-3.699,38.265
	c-5.491,12.387-14.649,22.627-25.793,28.839c-6.631,3.703-14.065,5.661-21.502,5.661c-2.185,0-4.36-0.174-6.472-0.518
	c-10.139-1.842-19.501-8.759-24.447-18.062l-0.074-0.142l-0.084-0.139c-4.375-7.263-6.322-16.702-5.789-28.058
	c1.483-19.091,11.941-37.323,27.332-47.612c6.418-4.338,13.582-7.033,20.721-7.794l0.123-0.013l0.123-0.02
	c1.146-0.171,2.35-0.257,3.576-0.257c0,0,0,0,0.002,0C238.786,140.646,243.576,141.661,249.57,143.841z"/>
<path d="M35.8,277.036c5.534,2.497,11.555,3.676,17.597,3.676c7.649,0,15.332-1.891,22.1-5.385
	c23.965-12.084,38.475-39.779,35.883-66.329c-1.163-13.169-7.266-26.312-17.949-34.396c-7.152-5.561-16.201-8.39-25.232-8.39
	c-2.546,0-5.093,0.226-7.595,0.677c-13,2.195-24.541,9.816-33.15,19.597c-9.34,9.948-14.603,23.067-16.875,36.383
	c-1.309,12.551-0.15,25.942,6.658,36.884C21.276,267.414,28.287,273.012,35.8,277.036z M16.528,223.685
	c2.33-13.47,7.619-24.907,15.302-33.093l0.066-0.069l0.063-0.07c8.427-9.575,18.956-15.841,29.645-17.646l0.035-0.006l0.035-0.006
	c2.133-0.386,4.329-0.582,6.526-0.582c0.001,0,0.001,0,0.002,0c7.983,0,15.636,2.531,21.547,7.126l0.031,0.022l0.031,0.022
	c8.678,6.568,14.507,17.835,15.594,30.141l0.002,0.027l0.002,0.027c1.148,11.757-1.444,24.248-7.299,35.172
	c-5.897,11.004-14.887,19.96-25.313,25.217l-0.026,0.014l-0.026,0.015c-5.974,3.085-12.664,4.716-19.347,4.716
	c-5.343,0-10.371-1.03-14.947-3.063c-7.569-4.088-12.92-9.03-15.906-14.694l-0.1-0.189l-0.113-0.183
	C17.109,248.188,15.156,237.12,16.528,223.685z"/>
<path d="M285.73,220.701c-3.731,4.563-6.582,10.008-11.424,13.554c-3.625,2.299-7.961,3.199-11.502,5.658
	c-6.129,4.204-12.268,8.391-18.39,12.603c-1.802,1.334-3.983,1.95-6.156,2.347c-12.161,2.189-25.142-1.493-36.786,3.67
	c-7.443,2.765-13.693,8.252-21.578,9.858c-15.699,3.731-31.389-4.862-47.129-1.298c-15.027,2.779-25.22,15.886-39.794,19.773
	c-3.529,1.017-7.283,1.568-10.927,0.863c-6.993-1.228-14.096-1.515-21.117-2.521c-10.628-0.988-21.27-2.359-31.967-1.956
	c-10.011,0.081-19.901,2.671-28.958,6.862v7.29c12.489-7.704,27.78-9.022,42.104-7.787c11.656,1.12,23.332,2.104,34.94,3.657
	c4.995,0.9,10.14,1.312,15.132,0.123c15.823-2.86,26.619-16.973,42.239-20.34c10.266-2.172,20.36,1.566,30.571,2.173
	c5.679,0.245,11.506,0.579,17.033-1.03c9.722-2.199,17.334-9.655,27.15-11.568c10.982-2.432,22.471,0.56,33.373-2.457
	c4.51-1.068,7.896-4.416,11.689-6.854c5.9-3.829,11.242-8.702,17.984-11.057c7.739-2.598,12.576-9.595,16.998-16.009
	c2.576-3.854,6.785-6.002,10.781-8.065v-6.729C294.816,213.769,289.475,216.283,285.73,220.701z"/>
<circle cx="187.967" cy="45.343" r="22"/>
</svg>
